<svg width="1024" height="1024" viewBox="0 0 1024 1024" xmlns="http://www.w3.org/2000/svg">
  <defs>
    <linearGradient id="bg" x1="0" y1="0" x2="1" y2="1">
      <stop offset="0%" stop-color="#4338CA"/>
      <stop offset="100%" stop-color="#7C3AED"/>
    </linearGradient>
  </defs>
  
  <!-- Vibrant gradient background -->
  <rect width="1024" height="1024" rx="224" fill="url(#bg)"/>
  
  <!-- Grid - white lines -->
  <!-- Thick 3x3 dividers -->
  <rect x="250" y="250" width="524" height="524" rx="20" fill="none" stroke="white" stroke-width="6" opacity="0.9"/>
  <line x1="424" y1="250" x2="424" y2="774" stroke="white" stroke-width="4" opacity="0.8"/>
  <line x1="600" y1="250" x2="600" y2="774" stroke="white" stroke-width="4" opacity="0.8"/>
  <line x1="250" y1="424" x2="774" y2="424" stroke="white" stroke-width="4" opacity="0.8"/>
  <line x1="250" y1="600" x2="774" y2="600" stroke="white" stroke-width="4" opacity="0.8"/>
  
  <!-- Thin cell lines -->
  <line x1="308" y1="250" x2="308" y2="774" stroke="white" stroke-width="1.5" opacity="0.3"/>
  <line x1="366" y1="250" x2="366" y2="774" stroke="white" stroke-width="1.5" opacity="0.3"/>
  <line x1="483" y1="250" x2="483" y2="774" stroke="white" stroke-width="1.5" opacity="0.3"/>
  <line x1="541" y1="250" x2="541" y2="774" stroke="white" stroke-width="1.5" opacity="0.3"/>
  <line x1="659" y1="250" x2="659" y2="774" stroke="white" stroke-width="1.5" opacity="0.3"/>
  <line x1="717" y1="250" x2="717" y2="774" stroke="white" stroke-width="1.5" opacity="0.3"/>
  <line x1="250" y1="308" x2="774" y2="308" stroke="white" stroke-width="1.5" opacity="0.3"/>
  <line x1="250" y1="366" x2="774" y2="366" stroke="white" stroke-width="1.5" opacity="0.3"/>
  <line x1="250" y1="483" x2="774" y2="483" stroke="white" stroke-width="1.5" opacity="0.3"/>
  <line x1="250" y1="541" x2="774" y2="541" stroke="white" stroke-width="1.5" opacity="0.3"/>
  <line x1="250" y1="659" x2="774" y2="659" stroke="white" stroke-width="1.5" opacity="0.3"/>
  <line x1="250" y1="717" x2="774" y2="717" stroke="white" stroke-width="1.5" opacity="0.3"/>
  
  <!-- A few white numbers scattered for character -->
  <text x="337" y="345" font-family="system-ui, -apple-system, sans-serif" font-weight="700" font-size="48" fill="white" opacity="0.95" text-anchor="middle" dominant-baseline="central">5</text>
  <text x="512" y="519" font-family="system-ui, -apple-system, sans-serif" font-weight="700" font-size="48" fill="white" text-anchor="middle" dominant-baseline="central">9</text>
  <text x="688" y="690" font-family="system-ui, -apple-system, sans-serif" font-weight="700" font-size="48" fill="white" opacity="0.95" text-anchor="middle" dominant-baseline="central">1</text>
</svg>
